<svg width="24" height="24" viewBox="0 0 24 24" fill="none" xmlns="http://www.w3.org/2000/svg">
<path fill-rule="evenodd" clip-rule="evenodd" d="M10.1154 6.70538C9.72581 6.31581 9.09419 6.31581 8.70462 6.70538C8.31534 7.09466 8.315 7.72569 8.70385 8.11538L12.58 12L8.70385 15.8846C8.315 16.2743 8.31534 16.9053 8.70462 17.2946C9.09419 17.6842 9.72581 17.6842 10.1154 17.2946L15.41 12L10.1154 6.70538Z" fill="black" fill-opacity="0.7"/>
<mask id="mask0_0_5" style="mask-type:luminance" maskUnits="userSpaceOnUse" x="8" y="6" width="8" height="12">
<path fill-rule="evenodd" clip-rule="evenodd" d="M10.1154 6.70538C9.72581 6.31581 9.09419 6.31581 8.70462 6.70538C8.31534 7.09466 8.315 7.72569 8.70385 8.11538L12.58 12L8.70385 15.8846C8.315 16.2743 8.31534 16.9053 8.70462 17.2946C9.09419 17.6842 9.72581 17.6842 10.1154 17.2946L15.41 12L10.1154 6.70538Z" fill="white"/>
</mask>
<g mask="url(#mask0_0_5)">
<rect width="24" height="24" fill="#C2D1D9"/>
</g>
</svg>
