<svg xmlns="http://www.w3.org/2000/svg" width="200" height="22" fill="none"><path fill="#004071" fill-rule="evenodd" d="M158.4 20.646v.923h4.223v-.923h-1.689V3.262l9.02 18.584h1.237V1.262h1.629V.37h-4.285v.892h1.691V13.2L164.011.37H158.4v.892h1.569v19.384H158.4Zm-1.87 0h-1.478V1.262h1.478V.37h-7.24v.892h1.448v19.384h-1.448v.923h7.24v-.923Zm21.207-6.369 1.78-6.646.06-.215 1.719 6.861h-3.559Zm-.301.984h4.102l1.358 5.385h-1.509v.923h6.818v-.923h-1.086L181.87.37h-1.237l-1.116 3.969-4.555 16.307h-1.387v.923h4.253v-.923h-1.871l1.479-5.385Zm-48.448 5.385v.923h3.831v-.923h-1.448V2.155l4.434 19.414h1.026l4.887-18.892v17.97h-1.599v.922h6.999v-.923h-1.267V1.262h1.267V.37h-5.762l-3.409 13.138L135.111.37h-6.123v.892h1.417v19.384h-1.417Zm60.514-5.477v6.4h.694l.814-1.077c.633.462 1.267.831 1.871 1.077a4.912 4.912 0 0 0 1.84.369c1.538 0 2.805-.615 3.801-1.815.965-1.2 1.478-2.738 1.478-4.646 0-1.508-.302-2.8-.905-3.939-.573-1.107-1.508-2.122-2.776-3.015-.156-.1-.331-.223-.537-.365-.231-.16-.5-.346-.82-.558-2.323-1.6-3.5-2.953-3.5-4.123 0-.738.272-1.384.815-1.877a2.847 2.847 0 0 1 2.021-.8c1.087 0 2.021.431 2.745 1.293.755.86 1.328 2.123 1.659 3.784h.695v-5.6h-.695l-.664 1.077a7.029 7.029 0 0 0-1.779-1.015 5.121 5.121 0 0 0-1.81-.339c-1.448 0-2.625.523-3.559 1.6-.935 1.047-1.388 2.431-1.388 4.093 0 1.446.302 2.707.935 3.753.634 1.046 1.87 2.247 3.71 3.57 1.6 1.107 2.625 1.999 3.048 2.615.421.645.633 1.322.633 2.122 0 .955-.271 1.724-.874 2.34-.574.615-1.328.922-2.233.922-1.237 0-2.232-.523-3.017-1.507-.784-1.016-1.297-2.462-1.508-4.339h-.694ZM15.203 21.6v-6.4h.694c.211 1.878.725 3.324 1.509 4.34.784 1.014 1.78 1.507 3.017 1.507.905 0 1.659-.308 2.232-.923.603-.616.905-1.385.905-2.339 0-.768-.211-1.477-.664-2.091-.422-.647-1.417-1.509-3.047-2.647-1.84-1.323-3.077-2.492-3.71-3.538-.633-1.077-.935-2.339-.935-3.754 0-1.692.452-3.077 1.388-4.123.935-1.046 2.112-1.6 3.59-1.6.602 0 1.206.123 1.78.338.572.216 1.176.585 1.78 1.047l.693-1.108h.694v5.6h-.694c-.362-1.631-.905-2.892-1.66-3.753C22.022 1.292 21.117.862 20 .862c-.784 0-1.448.246-1.99.77-.574.523-.845 1.138-.845 1.876 0 1.169 1.176 2.523 3.53 4.123.247.173.472.328.672.467.263.182.483.334.655.456 1.267.923 2.202 1.908 2.775 3.046.603 1.108.905 2.431.905 3.908 0 1.908-.513 3.476-1.478 4.676-.996 1.2-2.263 1.785-3.801 1.785-.604 0-1.207-.123-1.84-.37-.604-.215-1.237-.584-1.871-1.076l-.815 1.077h-.694Zm25.039 0h4.254v-.89h-1.9l1.507-5.417h4.103l1.357 5.416h-1.508v.892h6.818v-.892h-1.087L48.538.401H47.3l-1.116 4-4.556 16.307h-1.387v.892Zm.604-14.46h-.152c-.392-2.123-.875-3.63-1.477-4.523-.604-.893-1.419-1.354-2.444-1.354h-.242v19.446h2.142v.892h-8.597v-.892h2.142V1.262h-.242c-1.026 0-1.84.461-2.473 1.384-.604.892-1.086 2.4-1.449 4.493h-.784L27.451.4h13.817l.18 6.738h-.602ZM0 21.599v-.89h1.508V1.322H0V.401h12.579l.211 5.414h-.754c-.422-1.753-1.026-2.922-1.72-3.569-.723-.615-1.87-.923-3.468-.923H5.762v8.708c1.055 0 1.81-.308 2.232-.861.453-.555.694-1.509.754-2.862h.724v8.83h-.724c-.06-1.569-.332-2.646-.754-3.23-.422-.616-1.177-.923-2.232-.923v9.723h1.116c1.81 0 3.107-.462 3.921-1.385.845-.923 1.358-2.492 1.6-4.708h.783l-.27 6.985H0ZM46.185 7.662l-1.78 6.647h3.56l-1.72-6.862-.06.215Zm17.466-6.03c-.513-.215-1.177-.308-1.96-.308h-.152v19.354c.091.031.182.031.272.031.09.03.241.03.422.03a3.9 3.9 0 0 0 1.418-.246c.573-.216.995-.584 1.328-1.108.543-.892.814-2.46.814-4.677V8.061c0-2.737-.302-4.553-.875-5.445-.3-.431-.724-.77-1.267-.985Zm0 19.876c-.633.062-1.478.093-2.443.093H55.778v-.892h1.508V1.323h-1.508V.401h5.038c1.086 0 2.02.06 2.835.184.302.03.603.092.876.154.965.184 1.81.553 2.563 1.046 1.146.738 2.021 1.877 2.625 3.446.603 1.538.935 3.415.935 5.6 0 2.307-.362 4.277-1.056 5.938-.694 1.661-1.69 2.923-2.986 3.754-.574.4-1.238.677-1.99.83a6.45 6.45 0 0 1-.967.154ZM80.273.923c-.996 0-1.75.524-2.202 1.57-.453 1.045-.694 2.738-.694 5.015v6.953c0 2.34.242 4.062.694 5.108.483 1.046 1.206 1.57 2.203 1.57 1.024 0 1.779-.524 2.231-1.57.453-1.046.664-2.769.664-5.108V7.508c0-2.277-.211-3.97-.664-5.015-.452-1.046-1.207-1.57-2.231-1.57Zm0 21.077a5.33 5.33 0 0 1-2.564-.677c-.845-.43-1.629-1.077-2.353-1.908-.965-1.108-1.69-2.338-2.142-3.722-.452-1.385-.694-2.954-.694-4.708s.242-3.324.694-4.708c.483-1.323 1.177-2.584 2.142-3.692A7.982 7.982 0 0 1 77.679.677a5.68 5.68 0 0 1 2.594-.646c.905 0 1.81.246 2.655.677.875.43 1.659 1.046 2.352 1.877a12.157 12.157 0 0 1 2.112 3.692c.453 1.384.664 2.954.664 4.708s-.211 3.323-.664 4.708c-.452 1.384-1.176 2.614-2.112 3.722-.694.831-1.477 1.477-2.352 1.908-.875.462-1.75.677-2.654.677ZM98.773.195c1.088 0 2.034.048 2.838.193.332 0 .615.048.852.144.993.194 1.845.531 2.555 1.014 1.135.724 2.035 1.834 2.649 3.427.568 1.544.899 3.425.899 5.597 0 2.268-.331 4.246-1.04 5.887-.664 1.69-1.657 2.944-2.982 3.764a5.26 5.26 0 0 1-1.987.82c-.236.049-.568.097-.946.145-.663.097-1.467.097-2.461.097h-5.393v-.87h1.515V1.113h-1.515V.195h5.016ZM101.61 1.4c-.52-.193-1.183-.29-1.94-.29h-.142v19.255a.42.42 0 0 0 .237.048h.425c.569 0 1.042-.049 1.42-.241.568-.193.994-.58 1.326-1.11.519-.869.803-2.413.803-4.632V7.82c0-2.751-.284-4.585-.899-5.454a2.856 2.856 0 0 0-1.23-.965Zm8.8 19.882v-.87h1.514V1.113h-1.514V.195h12.537l.237 5.357h-.756c-.427-1.738-1.041-2.945-1.751-3.524-.71-.627-1.846-.916-3.408-.916h-1.087v8.685c1.04-.048 1.799-.337 2.223-.868.426-.579.663-1.496.71-2.847h.757v8.782h-.757c-.047-1.591-.284-2.653-.71-3.232-.473-.628-1.183-.918-2.223-.918v9.7h1.087c1.799 0 3.077-.482 3.928-1.399.804-.917 1.372-2.461 1.562-4.681h.803l-.284 6.949h-12.868Z" clip-rule="evenodd"/></svg>