<svg xmlns="http://www.w3.org/2000/svg" width="39" height="31" fill="none"><path fill="#BDC1C6" fill-rule="evenodd" d="M30 1.5a1.5 1.5 0 0 1 3 0v28a1.5 1.5 0 0 1-3 0v-28Zm-6 4a1.5 1.5 0 0 1 3 0v21a1.5 1.5 0 0 1-3 0v-21ZM37.5 8A1.5 1.5 0 0 0 36 9.5v14a1.5 1.5 0 0 0 3 0v-14A1.5 1.5 0 0 0 37.5 8ZM18 3.5a1.5 1.5 0 0 1 3 0v25a1.5 1.5 0 0 1-3 0v-25ZM1.5 14A1.5 1.5 0 0 0 0 15.5v3a1.5 1.5 0 0 0 3 0v-3A1.5 1.5 0 0 0 1.5 14ZM6 12.5a1.5 1.5 0 0 1 3 0v8a1.5 1.5 0 0 1-3 0v-8ZM13.5 8A1.5 1.5 0 0 0 12 9.5v14a1.5 1.5 0 0 0 3 0v-14A1.5 1.5 0 0 0 13.5 8Z" clip-rule="evenodd"/></svg>