<svg width="35" height="35" viewBox="0 0 35 35" fill="none" xmlns="http://www.w3.org/2000/svg">
<path fill-rule="evenodd" clip-rule="evenodd" d="M22.2666 18.3C22.8 17.9 22.8 17.1 22.2666 16.7L16.1833 12.1375C15.5241 11.643 14.5833 12.1134 14.5833 12.9375V22.0625C14.5833 22.8865 15.5241 23.3569 16.1833 22.8625L22.2666 18.3ZM2.91663 17.5C2.91663 25.55 9.44996 32.0833 17.5 32.0833C25.55 32.0833 32.0833 25.55 32.0833 17.5C32.0833 9.44996 25.55 2.91663 17.5 2.91663C9.44996 2.91663 2.91663 9.44996 2.91663 17.5ZM5.83329 17.5C5.83329 11.0687 11.0687 5.83329 17.5 5.83329C23.9312 5.83329 29.1666 11.0687 29.1666 17.5C29.1666 23.9312 23.9312 29.1666 17.5 29.1666C11.0687 29.1666 5.83329 23.9312 5.83329 17.5Z" fill="#C2D1D9"/>
<mask id="mask0_0_170" style="mask-type:luminance" maskUnits="userSpaceOnUse" x="2" y="2" width="31" height="31">
<path fill-rule="evenodd" clip-rule="evenodd" d="M22.2666 18.3C22.8 17.9 22.8 17.1 22.2666 16.7L16.1833 12.1375C15.5241 11.643 14.5833 12.1134 14.5833 12.9375V22.0625C14.5833 22.8865 15.5241 23.3569 16.1833 22.8625L22.2666 18.3ZM2.91663 17.5C2.91663 25.55 9.44996 32.0833 17.5 32.0833C25.55 32.0833 32.0833 25.55 32.0833 17.5C32.0833 9.44996 25.55 2.91663 17.5 2.91663C9.44996 2.91663 2.91663 9.44996 2.91663 17.5ZM5.83329 17.5C5.83329 11.0687 11.0687 5.83329 17.5 5.83329C23.9312 5.83329 29.1666 11.0687 29.1666 17.5C29.1666 23.9312 23.9312 29.1666 17.5 29.1666C11.0687 29.1666 5.83329 23.9312 5.83329 17.5Z" fill="white"/>
</mask>
<g mask="url(#mask0_0_170)">
<rect width="35" height="35" fill="#191919"/>
</g>
</svg>
