<svg xmlns="http://www.w3.org/2000/svg" width="15" height="15" fill="none"><path fill="#E7A100" fill-rule="evenodd" d="M15 7.5a7.5 7.5 0 1 1-15 0 7.5 7.5 0 0 1 15 0Z" clip-rule="evenodd"/><path fill="#fff" fill-rule="evenodd" d="M11.167 9.754a.262.262 0 0 0-.262-.262h-6.78a.262.262 0 0 0-.263.262v.63c0 .144.117.262.262.262h6.781a.262.262 0 0 0 .262-.262v-.63Zm.64-3.422a.258.258 0 0 1-.007.078l-.577 2.307a.262.262 0 0 1-.253.199l-3.46.017H4.05a.262.262 0 0 1-.255-.199L3.217 6.42a.263.263 0 0 1-.006-.08.551.551 0 1 1 .514-.1l.722.727c.183.184.436.29.695.29a.984.984 0 0 0 .782-.39l1.187-1.572a.551.551 0 1 1 .788-.008l1.178 1.576a.983.983 0 0 0 .784.393.973.973 0 0 0 .692-.286l.727-.727a.55.55 0 1 1 .527.09Z" clip-rule="evenodd"/></svg>