<svg xmlns="http://www.w3.org/2000/svg" width="30" height="30" fill="none"><circle cx="14.893" cy="14.893" r="14.893" fill="#1BD741"/><path fill="#fff" fill-rule="evenodd" d="M6.4 20.03 5 25l5.13-1.32a9.983 9.983 0 0 0 4.883 1.273c5.507 0 9.987-4.476 9.987-9.977C25 9.476 20.52 5 15.013 5s-9.987 4.475-9.987 9.976c0 1.787.474 3.526 1.375 5.055Zm4.298 2.022-.305-.186-2.964.762.806-2.862-.206-.32a8.248 8.248 0 0 1-1.31-4.47c0-4.568 3.721-8.284 8.294-8.284s8.293 3.716 8.293 8.284c0 4.568-3.72 8.284-8.293 8.284a8.283 8.283 0 0 1-4.315-1.208Z" clip-rule="evenodd"/><path fill="#fff" d="M12.434 11.035 11.73 11a.928.928 0 0 0-.604.181c-.341.26-.886.761-1.053 1.415-.25.974.136 2.167 1.134 3.36.998 1.193 2.858 3.102 6.147 3.917 1.06.263 1.894.086 2.537-.275.51-.285.861-.744.988-1.262l.112-.46c.036-.146-.049-.294-.204-.357l-2.375-.96a.398.398 0 0 0-.44.096l-.933 1.06a.29.29 0 0 1-.3.078c-.639-.197-2.778-.983-3.952-2.965a.214.214 0 0 1 .034-.263l.891-.904a.289.289 0 0 0 .06-.334l-1.024-2.1a.366.366 0 0 0-.315-.193Z"/></svg>