<svg xmlns="http://www.w3.org/2000/svg" width="40" height="40" fill="none"><rect width="40" height="40" fill="#FAFAFA" rx="20"/><rect width="39" height="39" x=".5" y=".5" stroke="#D9D9D9" stroke-opacity=".498" rx="19.5"/><path fill="#004071" fill-rule="evenodd" d="M20 10a10 10 0 1 1-5.35 18.45L10 30l1.55-4.65A9.969 9.969 0 0 1 10 20c0-5.523 4.477-10 10-10Zm4.849 12.01c.193.1.318.164.361.25.06.11.04.61-.21 1.18-.2.56-1.24 1.1-1.7 1.12-.08.004-.148.017-.216.03-.324.065-.691.139-2.744-.76-2.289-1.002-3.741-3.33-4.054-3.832l-.056-.088c-.12-.17-.96-1.38-.92-2.61.05-1.21.679-1.79.943-2.034l.007-.006c.24-.26.51-.29.68-.26h.47l.043-.001c.146-.005.335-.012.507.451l.69 1.87c.06.13.1.28.01.44l-.27.41-.39.42-.009.009c-.118.117-.248.247-.111.491.12.26.62 1.09 1.32 1.78a6.251 6.251 0 0 0 1.791 1.222c.067.032.12.057.159.078.24.14.39.12.54-.04l.81-.94c.187-.247.346-.192.57-.113l.01.003 1.67.88c.035.018.067.035.099.05ZM12 20a8 8 0 1 1 8 8 7.95 7.95 0 0 1-4.61-1.46l-2.89.96.96-2.89A7.95 7.95 0 0 1 12 20Z" clip-rule="evenodd"/></svg>